<svg xmlns="http://www.w3.org/2000/svg" viewBox="0 0 100 100" fill="none">
  <rect width="100" height="100" rx="50" fill="#ECFDF5"/>
  <!-- Van body -->
  <rect x="12" y="38" width="42" height="26" rx="3" fill="#10B981"/>
  <!-- Cabin -->
  <path d="M54 44h14a4 4 0 014 4v16H54V44z" fill="#059669"/>
  <!-- Windshield -->
  <path d="M56 46h10a3 3 0 013 3v7H56V46z" fill="#D1FAE5"/>
  <!-- Wheels -->
  <circle cx="28" cy="66" r="6" fill="#374151"/>
  <circle cx="28" cy="66" r="3" fill="#9CA3AF"/>
  <circle cx="62" cy="66" r="6" fill="#374151"/>
  <circle cx="62" cy="66" r="3" fill="#9CA3AF"/>
  <!-- Ground line -->
  <line x1="8" y1="72" x2="92" y2="72" stroke="#D1D5DB" stroke-width="1.5"/>
  <!-- Box on van -->
  <rect x="18" y="42" width="12" height="10" rx="1.5" fill="#FCD34D" stroke="#F59E0B" stroke-width="0.8"/>
  <rect x="34" y="45" width="10" height="7" rx="1.5" fill="#FCD34D" stroke="#F59E0B" stroke-width="0.8"/>
  <!-- Box tape lines -->
  <line x1="24" y1="42" x2="24" y2="52" stroke="#F59E0B" stroke-width="0.8"/>
  <line x1="39" y1="45" x2="39" y2="52" stroke="#F59E0B" stroke-width="0.8"/>
</svg>
